<svg width="200" height="200" viewBox="0 0 200 200" fill="none" xmlns="http://www.w3.org/2000/svg">
  <!-- Body (Orange) -->
  <rect x="45" y="90" width="110" height="110" rx="45" fill="#FF9900"/>
  <circle cx="100" cy="90" r="60" fill="#FF9900"/>

  <!-- Tabby Stripes -->
  <path d="M100 35 L 95 45 L 100 50 L 105 45 Z" fill="#CC6600"/>
  <path d="M45 120 L 65 120 L 55 130 Z" fill="#CC6600"/>
  <path d="M155 120 L 135 120 L 145 130 Z" fill="#CC6600"/>

  <!-- Ears -->
  <path d="M50 50 L 35 15 L 75 45 Z" fill="#FF9900"/>
  <path d="M150 50 L 165 15 L 125 45 Z" fill="#FF9900"/>
  
  <!-- Bandana -->
  <path d="M40 55 C 60 30, 140 30, 160 55 L 160 45 C 140 20, 60 20, 40 45 Z" fill="#D22B2B"/>
  <circle cx="60" cy="40" r="2" fill="white" opacity="0.8"/>
  <circle cx="100" cy="35" r="2" fill="white" opacity="0.8"/>
  <circle cx="140" cy="40" r="2" fill="white" opacity="0.8"/>
  <!-- Bandana Knot -->
  <path d="M160 50 L 175 45 L 175 60 Z" fill="#D22B2B"/>

  <!-- Eyes -->
  <circle cx="70" cy="85" r="14" fill="white"/>
  <circle cx="70" cy="85" r="5" fill="black"/>
  
  <!-- Pirate Eye Patch -->
  <path d="M160 55 L 130 85" stroke="black" stroke-width="2"/>
  <circle cx="130" cy="85" r="16" fill="black"/>

  <!-- Nose & Mouth -->
  <path d="M95 105 L 105 105 L 100 112 Z" fill="#FFC0CB"/>
  <path d="M100 112 Q 90 125 80 115" stroke="#333" stroke-width="2" fill="none"/>
  <path d="M100 112 Q 110 125 120 115" stroke="#333" stroke-width="2" fill="none"/>

  <!-- Gold Earring -->
  <circle cx="165" cy="30" r="6" stroke="#FFD700" stroke-width="3" fill="none"/>

  <!-- Scarf/Collar -->
  <path d="M60 145 Q 100 165 140 145" stroke="#333" stroke-width="2" fill="none"/>
</svg>
